<svg width="7" height="5" viewBox="0 0 7 5" fill="none" xmlns="http://www.w3.org/2000/svg">
<g clip-path="url(#clip0_11946_46271)">
<rect x="2" y="2" width="1" height="1" transform="rotate(90 2 2)" fill="#080809"/>
<rect x="2" width="1" height="1" transform="rotate(90 2 0)" fill="#080809"/>
<rect x="2" y="4" width="1" height="1" transform="rotate(90 2 4)" fill="#080809"/>
<rect x="3" y="3" width="1" height="1" transform="rotate(90 3 3)" fill="#080809"/>
<rect x="3" y="1" width="1" height="1" transform="rotate(90 3 1)" fill="#080809"/>
<rect x="3" width="1" height="1" transform="rotate(90 3 0)" fill="#080809"/>
<rect x="4" width="5" height="1" transform="rotate(90 4 0)" fill="#080809"/>
<rect x="6" width="5" height="2" transform="rotate(90 6 0)" fill="#080809"/>
<rect x="7" width="5" height="1" transform="rotate(90 7 0)" fill="#080809"/>
<rect x="3" y="4" width="1" height="1" transform="rotate(90 3 4)" fill="#080809"/>
<rect x="1" width="5" height="1" transform="rotate(90 1 0)" fill="#080809"/>
</g>
<defs>
<clipPath id="clip0_11946_46271">
<rect width="7" height="5" fill="white"/>
</clipPath>
</defs>
</svg>
